<?xml version="1.0" standalone="no"?>
<!DOCTYPE svg PUBLIC "-//W3C//DTD SVG 20010904//EN"
 "http://www.w3.org/TR/2001/REC-SVG-20010904/DTD/svg10.dtd">
<svg version="1.0" xmlns="http://www.w3.org/2000/svg"
 width="auto" height="auto" viewBox="0 0 5883.000000 975.000000"
 preserveAspectRatio="xMidYMid meet">

<g transform="translate(0.000000,975.000000) scale(0.100000,-0.100000)"
fill="#000000" stroke="none">
<path d="M20244 9733 c3 -10 14 -54 25 -99 141 -560 415 -1063 767 -1404 397
-385 873 -599 1529 -687 189 -25 761 -25 965 0 651 80 1156 300 1539 671 295
286 503 623 660 1069 35 101 105 346 125 440 l6 27 -734 0 -734 0 -36 -107
c-45 -130 -137 -325 -202 -425 -204 -317 -476 -496 -849 -560 -158 -27 -468
-22 -610 10 -481 109 -801 431 -989 1000 l-28 82 -719 0 c-681 0 -720 -1 -715
-17z"/>
<path d="M19999 7030 c-1032 -57 -1668 -436 -1899 -1129 -157 -470 -127 -1053
75 -1466 93 -191 243 -372 414 -500 96 -73 278 -170 394 -210 42 -15 77 -33
77 -40 0 -7 -45 -24 -107 -40 -723 -186 -1129 -669 -1204 -1432 -14 -143 -6
-464 15 -608 106 -719 468 -1178 1120 -1420 188 -69 452 -128 756 -166 131
-17 6358 -25 6595 -9 1054 72 1693 471 1935 1208 75 231 110 471 110 762 0
278 -28 472 -97 680 -75 227 -180 398 -348 565 -205 206 -453 342 -768 421
-64 16 -107 31 -107 39 0 7 35 25 78 40 414 146 722 448 872 854 142 385 148
919 15 1319 -78 232 -181 399 -354 573 -306 306 -713 470 -1351 546 -134 16
-375 17 -3115 19 -1633 1 -3031 -2 -3106 -6z m3721 -3515 l0 -2525 -710 0
-710 0 0 2525 0 2525 710 0 710 0 0 -2525z m-2790 1545 l0 -900 -378 0 c-208
0 -416 5 -462 10 -212 26 -363 93 -486 215 -71 69 -88 94 -132 185 -81 170
-107 319 -100 574 6 191 23 275 82 401 119 251 316 365 711 409 17 1 195 4
398 5 l367 1 0 -900z m4961 890 c208 -21 389 -85 507 -179 57 -45 130 -138
168 -213 121 -238 116 -720 -10 -983 -111 -232 -317 -367 -621 -404 -51 -6
-254 -11 -467 -11 l-378 0 0 900 0 900 349 0 c192 0 395 -5 452 -10z m-4961
-3865 l0 -1005 -427 0 c-451 0 -544 6 -703 46 -368 92 -573 342 -621 757 -15
128 -7 393 16 506 81 413 346 635 820 689 44 5 268 10 498 11 l417 1 0 -1005z
m5170 981 c333 -64 528 -194 646 -431 76 -154 104 -304 104 -556 0 -357 -76
-586 -252 -756 -125 -120 -291 -191 -533 -228 -77 -11 -199 -15 -537 -15
l-438 0 0 1006 0 1006 463 -5 c371 -4 479 -8 547 -21z"/>
<path d="M57750 6379 c-85 -13 -231 -62 -300 -101 -282 -158 -440 -458 -440
-838 0 -481 242 -807 665 -895 165 -34 375 -30 531 11 411 107 639 455 621
952 -6 181 -29 279 -97 417 -109 224 -287 366 -537 431 -112 29 -328 40 -443
23z m436 -242 c247 -81 377 -284 400 -622 17 -267 -68 -517 -220 -637 -68 -54
-175 -105 -261 -123 -92 -19 -276 -19 -373 1 -232 47 -395 206 -458 449 -28
106 -26 380 4 490 65 239 215 396 434 455 62 17 98 20 233 17 140 -4 170 -7
241 -30z"/>
<path d="M57517 5964 c-4 -4 -7 -43 -7 -86 l0 -78 55 0 55 0 0 -319 0 -320
-52 -3 -53 -3 -3 -77 -3 -78 196 0 195 0 0 80 0 80 -30 0 -30 0 0 115 0 115
49 0 48 0 51 -112 c40 -91 47 -115 36 -121 -10 -6 -14 -29 -14 -82 l0 -75 190
0 191 0 -3 78 -3 77 -53 3 -52 3 -65 129 c-36 72 -65 132 -65 135 0 3 6 5 13
5 25 0 86 62 111 113 58 119 41 255 -42 338 -76 75 -108 82 -432 87 -151 2
-278 0 -283 -4z m512 -199 c35 -17 41 -32 41 -95 0 -37 -6 -56 -24 -77 -23
-26 -30 -28 -115 -31 l-91 -4 0 111 0 111 80 0 c52 0 91 -5 109 -15z"/>
<path d="M5430 5529 c-649 -75 -1132 -427 -1383 -1009 -163 -381 -238 -842
-223 -1385 20 -779 192 -1313 536 -1669 125 -129 238 -213 385 -286 270 -134
543 -192 915 -193 288 0 500 32 723 110 598 208 976 736 1096 1533 63 421 61
955 -4 1337 -60 346 -173 649 -329 882 -82 124 -238 289 -356 377 -203 153
-479 257 -790 299 -116 16 -446 18 -570 4z m420 -710 c149 -24 270 -83 383
-189 194 -181 302 -443 364 -880 22 -159 26 -793 5 -960 -33 -268 -92 -482
-178 -650 -116 -227 -273 -359 -500 -422 -107 -29 -372 -32 -479 -4 -329 84
-552 357 -649 796 -98 446 -95 1111 8 1517 103 409 296 658 585 759 38 13 93
28 122 33 76 12 262 13 339 0z"/>
<path d="M54840 5529 c-649 -75 -1132 -427 -1383 -1009 -163 -381 -238 -842
-223 -1385 20 -779 192 -1313 536 -1669 125 -129 238 -213 385 -286 270 -134
543 -192 915 -193 288 0 500 32 723 110 598 208 976 736 1096 1533 63 421 61
955 -4 1337 -60 346 -173 649 -329 882 -82 124 -238 289 -356 377 -203 153
-479 257 -790 299 -116 16 -446 18 -570 4z m420 -710 c149 -24 270 -83 383
-189 194 -181 302 -443 364 -880 22 -159 26 -793 5 -960 -33 -268 -92 -482
-178 -650 -116 -227 -273 -359 -500 -422 -107 -29 -372 -32 -479 -4 -329 84
-552 357 -649 796 -98 446 -95 1111 8 1517 103 409 296 658 585 759 38 13 93
28 122 33 76 12 262 13 339 0z"/>
<path d="M0 5155 l0 -315 255 0 255 0 0 -1580 0 -1580 -255 0 -255 0 0 -310 0
-311 1093 4 c978 3 1102 5 1192 21 280 48 473 117 640 229 86 58 213 189 268
278 120 192 177 424 177 714 0 346 -95 603 -292 791 -119 115 -272 196 -455
245 -46 12 -83 25 -83 29 0 5 12 11 28 15 43 11 186 80 239 116 112 77 228
208 288 329 116 230 146 572 75 849 -95 373 -361 618 -787 725 -241 61 -215
60 -1345 63 l-1038 4 0 -316z m1956 -380 c281 -54 409 -244 391 -579 -11 -188
-55 -304 -153 -396 -115 -109 -205 -130 -561 -130 l-263 0 0 560 0 560 254 0
c183 0 276 -4 332 -15z m-51 -1785 c61 -5 137 -17 170 -25 203 -52 338 -191
380 -390 19 -92 19 -327 0 -419 -43 -204 -173 -338 -380 -391 -80 -21 -277
-34 -512 -35 l-193 0 0 635 0 635 213 0 c116 0 262 -5 322 -10z"/>
<path d="M7950 5155 l0 -315 260 0 260 0 0 -1580 0 -1580 -255 0 -255 0 0
-310 0 -310 1565 0 1565 0 0 710 0 710 -375 0 -375 0 0 -375 0 -375 -505 0
-505 0 0 1555 0 1555 298 2 297 3 3 313 2 312 -990 0 -990 0 0 -315z"/>
<path d="M11470 5156 l0 -316 255 0 255 0 0 -1580 0 -1580 -250 0 -250 0 0
-310 0 -310 990 0 c821 0 1016 3 1137 15 844 89 1372 508 1592 1265 170 586
155 1424 -34 1970 -230 662 -695 1018 -1485 1136 -102 16 -235 18 -1162 21
l-1048 4 0 -315z m2135 -395 c197 -44 342 -118 460 -235 84 -84 122 -137 180
-255 116 -235 175 -575 175 -1016 0 -675 -136 -1111 -412 -1320 -205 -156
-439 -204 -985 -205 l-183 0 0 1531 0 1531 333 -5 c295 -4 343 -7 432 -26z"/>
<path d="M30890 5155 l0 -315 255 0 255 0 0 -1580 0 -1580 -255 0 -255 0 0
-310 0 -311 1093 4 c978 3 1102 5 1192 21 280 48 473 117 640 229 86 58 213
189 268 278 120 192 177 424 177 714 0 346 -95 603 -292 791 -119 115 -272
196 -455 245 -46 12 -83 25 -83 29 0 5 12 11 28 15 43 11 186 80 239 116 112
77 228 208 288 329 116 230 146 572 75 849 -95 373 -361 618 -787 725 -241 61
-215 60 -1345 63 l-1038 4 0 -316z m1956 -380 c281 -54 409 -244 391 -579 -11
-188 -55 -304 -153 -396 -115 -109 -205 -130 -561 -130 l-263 0 0 560 0 560
254 0 c183 0 276 -4 332 -15z m-51 -1785 c61 -5 137 -17 170 -25 203 -52 338
-191 380 -390 19 -92 19 -327 0 -419 -43 -204 -173 -338 -380 -391 -80 -21
-277 -34 -512 -35 l-193 0 0 635 0 635 213 0 c116 0 262 -5 322 -10z"/>
<path d="M34502 5158 l3 -313 248 -3 247 -2 0 -1133 c0 -653 4 -1193 10 -1277
55 -787 323 -1202 885 -1365 342 -99 874 -107 1235 -18 511 125 815 461 933
1029 61 291 67 438 67 1697 l0 1067 250 0 250 0 0 315 0 315 -885 0 -885 0 2
-312 3 -313 203 -3 203 -2 -4 -1253 c-3 -1130 -5 -1260 -20 -1337 -38 -186
-98 -321 -182 -405 -62 -62 -126 -97 -230 -127 -70 -20 -103 -22 -260 -22
-138 0 -196 4 -249 17 -256 65 -380 226 -444 577 -13 73 -16 264 -19 1317 l-4
1233 203 2 203 3 3 313 2 312 -885 0 -885 0 2 -312z"/>
<path d="M38980 5155 l0 -315 255 0 255 0 0 -1580 0 -1580 -250 0 -250 0 0
-310 0 -310 1000 0 1000 0 0 310 0 310 -320 0 -320 0 0 560 0 560 605 0 605 0
0 360 0 360 -605 0 -605 0 0 645 0 645 485 0 485 0 0 -315 0 -315 370 0 370 0
0 645 0 645 -1540 0 -1540 0 0 -315z"/>
<path d="M42410 5155 l0 -315 255 0 255 0 0 -1580 0 -1580 -250 0 -250 0 0
-310 0 -310 1000 0 1000 0 0 310 0 310 -320 0 -320 0 0 560 0 560 605 0 605 0
0 360 0 360 -605 0 -605 0 0 645 0 645 485 0 485 0 0 -315 0 -315 370 0 370 0
0 645 0 645 -1540 0 -1540 0 0 -315z"/>
<path d="M46290 5155 l0 -315 199 -2 199 -3 -454 -1540 c-250 -847 -459 -1557
-464 -1577 l-11 -38 -219 0 -220 0 0 -310 0 -310 855 0 855 0 0 310 0 310
-201 0 c-187 0 -201 1 -197 18 2 9 40 158 84 329 l79 313 602 0 601 0 76 -312
c42 -172 79 -321 82 -330 5 -17 -9 -18 -200 -18 l-206 0 0 -310 0 -310 870 0
870 0 0 310 0 310 -217 2 -217 3 -462 1575 -461 1575 194 3 193 2 0 315 0 315
-1115 0 -1115 0 0 -315z m1325 -1278 l210 -822 -212 -3 c-117 -1 -309 -1 -426
0 l-214 3 211 823 c115 452 212 822 215 822 4 0 101 -370 216 -823z"/>
<path d="M49730 5155 l0 -315 260 0 260 0 0 -1580 0 -1580 -255 0 -255 0 0
-310 0 -310 1565 0 1565 0 0 710 0 710 -375 0 -375 0 0 -375 0 -375 -505 0
-505 0 0 1555 0 1555 298 2 297 3 3 313 2 312 -990 0 -990 0 0 -315z"/>
</g>
</svg>
